<mxfile host="app.diagrams.net" modified="2023-09-21T00:32:16.340Z" agent="Mozilla/5.0 (Macintosh; Intel Mac OS X 10_15_7) AppleWebKit/605.1.15 (KHTML, like Gecko) Version/17.0 Safari/605.1.15" version="21.8.0" etag="YMUiif7TzM4bjsdTS-Wk" type="github">
  <diagram name="Page-1" id="qOqqPFRSS-e-CE0JxINH">
    <mxGraphModel>
      <root>
        <mxCell id="0" />
        <mxCell id="1" parent="0" />
      </root>
    </mxGraphModel>
  </diagram>
</mxfile>
